<svg width="1560" height="2563" viewBox="0 0 1560 2563" fill="none" xmlns="http://www.w3.org/2000/svg">
<g clip-path="url(#clip0_186_2)">
<path d="M1436.03 750.815C1436.03 776.361 1448.26 794.779 1471.37 808.046L1492.45 820.22C1504.8 827.52 1519.03 831.014 1533.35 830.262C1537.05 830.161 1540.72 831.049 1543.96 832.834C1547.21 834.62 1549.91 837.238 1551.81 840.419C1553.7 843.6 1554.71 847.228 1554.74 850.93C1554.76 854.632 1553.8 858.274 1551.95 861.479C1550.09 864.684 1547.42 867.337 1544.2 869.165C1540.98 870.992 1537.33 871.927 1533.62 871.874C1529.92 871.821 1526.3 870.781 1523.13 868.863C1519.96 866.944 1517.37 864.215 1515.61 860.958C1509.09 848.183 1498.96 837.614 1486.46 830.574L1465.38 818.451C1438.32 802.843 1420.57 804.248 1397.15 817.827L1343.13 849.044V1167.97C1343.25 1181.18 1346.94 1194.1 1353.8 1205.38C1360.66 1216.66 1370.44 1225.88 1382.11 1232.07L1488.49 1293.41C1501.72 1301.24 1516.96 1304.98 1532.31 1304.18C1536.33 1304.02 1540.33 1304.94 1543.87 1306.84C1547.42 1308.74 1550.39 1311.56 1552.47 1315.01C1554.56 1318.45 1555.68 1322.39 1555.72 1326.41C1555.76 1330.44 1554.72 1334.4 1552.7 1337.88C1550.69 1341.37 1547.78 1344.25 1544.27 1346.22C1540.77 1348.2 1536.79 1349.2 1532.77 1349.11C1528.74 1349.03 1524.82 1347.87 1521.39 1345.75C1517.97 1343.63 1515.18 1340.63 1513.32 1337.07C1506.34 1323.37 1495.48 1312.04 1482.09 1304.5L1375.66 1243.47C1357.39 1233.06 1324.39 1230.67 1303.63 1242.69L1061.25 1382.59V1295.18C1125.82 1257.83 1190.46 1220.54 1255.17 1183.32C1258.99 1181.18 1262.16 1178.05 1264.35 1174.26C1266.54 1170.47 1267.67 1166.16 1267.61 1161.78V892.747L1230.29 914.339C1227.38 922.767 1229.72 1113.03 1229.72 1139C1229.78 1143.37 1228.66 1147.69 1226.47 1151.48C1224.28 1155.27 1221.11 1158.4 1217.28 1160.53C1165.24 1190.5 1113.19 1220.49 1061.15 1250.49V1221.2C1061.21 1216.82 1060.08 1212.51 1057.89 1208.72C1055.7 1204.93 1052.53 1201.8 1048.71 1199.66L1023.52 1185.14L1141.56 1116.94C1145.38 1114.8 1148.55 1111.67 1150.74 1107.88C1152.93 1104.09 1154.06 1099.77 1154 1095.4C1154 1040.14 1154 984.889 1154 929.635C1154.06 925.257 1152.93 920.945 1150.74 917.154C1148.55 913.362 1145.38 910.232 1141.56 908.095C1093.26 880.347 1044.96 852.478 996.664 824.487C992.91 822.251 988.621 821.07 984.251 821.07C979.881 821.07 975.592 822.251 971.838 824.487L854.268 892.435V862.831C854.329 858.454 853.204 854.141 851.015 850.35C848.825 846.558 845.652 843.429 841.83 841.292L817.108 826.932L934.314 758.983C938.136 756.859 941.31 753.74 943.5 749.956C945.691 746.173 946.815 741.867 946.753 737.496V571.267C946.818 566.894 945.702 562.585 943.522 558.794C941.341 555.003 938.178 551.871 934.366 549.727L790.253 466.482C786.499 464.247 782.21 463.066 777.84 463.066C773.47 463.066 769.182 464.247 765.427 466.482L621.106 549.727C617.333 551.898 614.211 555.042 612.069 558.831C609.927 562.62 608.842 566.915 608.928 571.267C608.928 626.468 609.292 681.774 608.928 736.976C608.838 741.411 609.971 745.786 612.201 749.622C614.432 753.457 617.675 756.606 621.575 758.723C682.468 793.114 743.204 828.545 803.733 863.456C807.576 865.573 810.769 868.696 812.97 872.491C815.171 876.286 816.295 880.609 816.223 884.995V1096.02C816.17 1100.42 817.307 1104.74 819.516 1108.55C821.724 1112.35 824.921 1115.48 828.766 1117.61L1010.61 1221.67C1014.44 1223.8 1017.63 1226.92 1019.83 1230.72C1022.03 1234.51 1023.16 1238.82 1023.1 1243.21C1023.1 1317.68 1023.1 1392.11 1023.1 1466.51C1023.1 1489.2 1041.53 1513.8 1060.63 1524.78L1081.45 1536.96C1093.76 1544.29 1107.99 1547.78 1122.3 1547C1126 1546.89 1129.66 1547.78 1132.91 1549.56C1136.15 1551.34 1138.86 1553.95 1140.76 1557.13C1142.66 1560.3 1143.68 1563.93 1143.71 1567.63C1143.74 1571.33 1142.78 1574.97 1140.94 1578.18C1139.09 1581.39 1136.42 1584.04 1133.21 1585.88C1129.99 1587.71 1126.35 1588.65 1122.64 1588.61C1118.94 1588.57 1115.32 1587.54 1112.15 1585.63C1108.98 1583.72 1106.37 1581 1104.61 1577.75C1098.1 1564.95 1087.94 1554.37 1075.41 1547.36L1054.59 1535.19C1031.95 1522.13 1006.4 1520.67 984.173 1533.58C919.568 1570.86 855.032 1608.22 790.565 1645.64C786.795 1647.89 782.489 1649.07 778.1 1649.07C773.712 1649.07 769.406 1647.89 765.636 1645.64C700.163 1607.77 635.523 1569.73 569.998 1531.96C548.451 1518.38 526.176 1520.46 503.328 1533.63L482.51 1545.8C469.744 1552.79 459.386 1563.47 452.792 1576.45C451.025 1579.7 448.423 1582.41 445.254 1584.32C442.086 1586.23 438.466 1587.27 434.767 1587.31C431.067 1587.36 427.422 1586.42 424.207 1584.59C420.992 1582.76 418.322 1580.11 416.473 1576.9C414.624 1573.7 413.663 1570.06 413.687 1566.36C413.712 1562.66 414.722 1559.04 416.614 1555.86C418.506 1552.68 421.21 1550.07 424.45 1548.28C427.69 1546.49 431.347 1545.6 435.045 1545.7C449.375 1546.48 463.615 1542.99 475.953 1535.66L496.771 1523.48C516.548 1512.09 533.202 1490.24 533.202 1466.77V1405.07L243.935 1237.8C225.98 1227.39 198.136 1232.59 179.868 1243L73.6959 1304.29C60.3065 1311.83 49.4435 1323.16 42.4689 1336.86C40.6019 1340.42 37.8119 1343.42 34.3901 1345.54C30.9683 1347.66 27.0402 1348.82 23.0158 1348.9C18.9915 1348.99 15.0186 1347.99 11.5119 1346.01C8.00513 1344.04 5.09322 1341.16 3.08015 1337.67C1.06708 1334.19 0.0266781 1330.23 0.0675666 1326.2C0.108455 1322.18 1.22914 1318.24 3.3126 1314.8C5.39607 1311.36 8.36591 1308.54 11.9121 1306.63C15.4582 1304.73 19.4506 1303.81 23.4724 1303.98C38.8218 1304.78 54.0661 1301.03 67.2944 1293.21L173.518 1231.92C197.876 1217.82 212.448 1197.68 212.448 1171.2V893.319L288.018 936.971C288.018 1011.82 288.018 1086.72 288.018 1161.68C287.956 1166.05 289.08 1170.36 291.27 1174.14C293.46 1177.92 296.635 1181.04 300.456 1183.17L533.723 1317.87V1243.47C533.651 1239.09 534.771 1234.77 536.961 1230.98C539.152 1227.18 542.332 1224.06 546.161 1221.93C606.846 1186.91 667.479 1152.37 728.319 1117.46C732.149 1115.33 735.329 1112.2 737.519 1108.41C739.71 1104.61 740.829 1100.3 740.758 1095.92C740.758 1040.21 740.758 984.472 740.758 928.698C740.818 924.321 739.694 920.009 737.505 916.217C735.315 912.426 732.141 909.296 728.319 907.159C680.23 879.428 632.556 851.905 584.415 824.226C580.64 821.94 576.311 820.73 571.898 820.73C567.484 820.73 563.155 821.94 559.381 824.226C511.708 852.426 463.097 879.896 415.06 907.471C411.235 909.61 408.057 912.739 405.86 916.529C403.662 920.319 402.525 924.63 402.569 929.011V1095.5C402.507 1099.86 403.626 1104.16 405.806 1107.95C407.986 1111.73 411.147 1114.85 414.956 1116.99C454.562 1139.83 493.752 1162.62 533.046 1185.35L507.856 1199.87C504.038 1202.01 500.867 1205.14 498.678 1208.93C496.489 1212.72 495.363 1217.03 495.417 1221.41V1250.6L339.282 1160.59C335.46 1158.46 332.286 1155.34 330.095 1151.56C327.905 1147.78 326.781 1143.47 326.843 1139.1C326.843 1054.61 326.843 970.113 326.843 885.619C326.713 881.173 327.803 876.776 329.996 872.905C332.189 869.034 335.4 865.838 339.282 863.664C400.383 828.389 461.501 793.131 522.637 757.891C525.91 755.628 528.573 752.591 530.389 749.051C532.205 745.511 533.118 741.578 533.046 737.6V569.498C532.838 565.406 531.592 561.435 529.425 557.958C527.258 554.482 524.241 551.613 520.659 549.623L377.015 466.378C373.255 464.159 368.969 462.988 364.602 462.988C360.236 462.988 355.949 464.159 352.189 466.378L209.638 548.426C216.179 561.617 226.58 572.504 239.46 579.643L326.479 629.85C338.808 637.204 353.05 640.718 367.386 639.944C371.085 639.848 374.742 640.739 377.982 642.525C381.221 644.311 383.926 646.928 385.818 650.107C387.709 653.285 388.719 656.91 388.744 660.608C388.769 664.307 387.807 667.945 385.958 671.148C384.109 674.352 381.44 677.005 378.225 678.834C375.009 680.664 371.364 681.604 367.665 681.557C363.966 681.511 360.345 680.479 357.177 678.57C354.009 676.66 351.407 673.941 349.639 670.692C343.137 657.88 332.975 647.286 320.442 640.256L233.474 590.101C221.88 583.149 208.584 579.547 195.065 579.695V737.548C195.022 741.863 196.127 746.113 198.267 749.861C200.407 753.609 203.505 756.722 207.244 758.879C237.586 776.985 315.237 821.313 325.542 827.192L300.769 841.448C296.95 843.589 293.78 846.72 291.591 850.51C289.402 854.301 288.275 858.611 288.33 862.987V892.695L155.667 816.266C135.89 803.779 109.399 807.942 89.8299 819.232L68.7516 831.406C56.2356 838.419 46.09 848.996 39.6064 861.791C37.8385 865.039 35.2366 867.759 32.0683 869.668C28.9 871.578 25.2798 872.609 21.5804 872.656C17.8811 872.702 14.2361 871.762 11.0208 869.933C7.8055 868.103 5.13597 865.45 3.28701 862.247C1.43805 859.043 0.476456 855.405 0.501212 851.707C0.525969 848.009 1.53618 844.384 3.42786 841.205C5.31954 838.027 8.02435 835.41 11.2639 833.623C14.5034 831.837 18.1606 830.946 21.859 831.042C36.1811 831.81 50.4113 828.335 62.7664 821.053L83.5845 808.878C106.588 795.611 119.235 776.413 119.235 750.815C119.235 676.346 119.235 601.928 119.235 527.563C119.173 523.192 120.297 518.886 122.487 515.103C124.678 511.319 127.852 508.2 131.674 506.076C196.522 468.824 260.798 431.832 325.282 394.58C347.765 381.573 358.174 361.698 358.174 334.436V310.086C358.342 295.745 354.248 281.676 346.412 269.661C344.478 266.507 343.419 262.894 343.346 259.195C343.272 255.496 344.187 251.844 345.995 248.616C347.803 245.387 350.439 242.699 353.632 240.828C356.825 238.957 360.459 237.971 364.16 237.971C367.861 237.971 371.495 238.957 374.688 240.828C377.881 242.699 380.517 245.387 382.325 248.616C384.133 251.844 385.047 255.496 384.974 259.195C384.9 262.894 383.842 266.507 381.907 269.661C374.071 281.676 369.978 295.745 370.145 310.086V334.436C370.145 360.449 380.554 381.833 402.725 394.58L457.008 425.797L741.903 261.336C762.721 250.462 771.673 222.992 771.673 200.36V78.0418C771.854 62.6845 767.47 47.6192 759.078 34.7546C756.935 31.3543 755.743 27.4416 755.626 23.4243C755.51 19.407 756.473 15.4319 758.416 11.9131C760.358 8.3944 763.209 5.46072 766.671 3.41768C770.133 1.37464 774.08 0.296997 778.1 0.296997C782.121 0.296997 786.068 1.37464 789.53 3.41768C792.992 5.46072 795.843 8.3944 797.785 11.9131C799.728 15.4319 800.691 19.407 800.574 23.4243C800.458 27.4416 799.266 31.3543 797.123 34.7546C788.749 47.6249 784.384 62.6899 784.58 78.0418V200.412C784.58 224.605 798.58 252.752 819.294 264.666L1060.16 403.685L984.641 447.44C919.897 409.98 855.118 372.624 790.305 335.372C786.545 333.152 782.259 331.981 777.892 331.981C773.526 331.981 769.239 333.152 765.479 335.372C687.932 380.116 610.35 424.791 532.734 469.396L571.039 491.456L765.479 379.18C769.23 376.933 773.52 375.746 777.892 375.746C782.264 375.746 786.555 376.933 790.305 379.18C863.949 421.426 936.812 463.725 1009.99 506.128C1013.79 508.28 1016.95 511.414 1019.13 515.203C1021.31 518.993 1022.43 523.297 1022.37 527.667V736.507C1022.32 740.871 1023.44 745.169 1025.62 748.95C1027.8 752.731 1030.96 755.855 1034.76 757.995L1178.77 841.656C1182.46 843.875 1186.68 845.073 1190.98 845.128C1195.29 845.183 1199.54 844.092 1203.28 841.968C1234.87 824.539 1318.35 778.078 1349.01 758.411C1352.54 756.213 1355.44 753.143 1357.44 749.498C1359.43 745.853 1360.46 741.755 1360.41 737.6V576.782C1346.28 576.469 1332.33 580.07 1320.12 587.187L1233.47 637.238C1220.94 644.25 1210.78 654.826 1204.27 667.622C1202.51 670.879 1199.91 673.608 1196.75 675.527C1193.58 677.446 1189.96 678.485 1186.25 678.538C1182.55 678.591 1178.9 677.656 1175.68 675.829C1172.46 674.001 1169.79 671.348 1167.93 668.143C1166.08 664.938 1165.11 661.297 1165.14 657.595C1165.16 653.893 1166.17 650.264 1168.07 647.083C1169.96 643.902 1172.67 641.284 1175.92 639.498C1179.16 637.713 1182.82 636.825 1186.52 636.926C1200.85 637.678 1215.08 634.185 1227.43 626.884L1314.45 576.678C1326.63 569.716 1336.63 559.501 1343.34 547.178C1298.47 519.187 1250.02 492.913 1204.12 466.378C1200.36 464.133 1196.06 462.947 1191.68 462.947C1187.3 462.947 1183 464.133 1179.24 466.378L1060.16 535.003V505.868C1060.22 501.49 1059.09 497.178 1056.91 493.386C1054.72 489.595 1051.54 486.465 1047.72 484.328L1022.48 469.76L1152.59 394.58C1171.12 384.174 1182.83 355.403 1182.83 334.436V310.086C1182.98 295.739 1178.87 281.668 1171.01 269.661C1169.08 266.507 1168.02 262.894 1167.95 259.195C1167.87 255.496 1168.79 251.844 1170.6 248.616C1172.41 245.387 1175.04 242.699 1178.23 240.828C1181.43 238.957 1185.06 237.971 1188.76 237.971C1192.46 237.971 1196.1 238.957 1199.29 240.828C1202.48 242.699 1205.12 245.387 1206.93 248.616C1208.74 251.844 1209.65 255.496 1209.58 259.195C1209.5 262.894 1208.44 266.507 1206.51 269.661C1198.67 281.676 1194.58 295.745 1194.75 310.086V334.436C1194.75 368.618 1205.73 380.636 1229.98 394.58C1294.48 431.762 1358.98 468.928 1423.49 506.076C1427.31 508.2 1430.48 511.319 1432.67 515.103C1434.86 518.886 1435.99 523.192 1435.92 527.563V750.815H1436.03ZM495.365 904.401L614.132 972.922C617.955 975.059 621.128 978.189 623.318 981.98C625.507 985.772 626.631 990.084 626.571 994.462C626.571 1040.21 626.571 1085.98 626.571 1131.76L702.141 1088.16C702.141 1042.38 702.141 996.595 702.141 950.81C702.203 946.439 701.079 942.133 698.888 938.35C696.698 934.566 693.524 931.447 689.702 929.323C650.043 906.361 610.454 883.504 570.935 860.75L495.365 904.401ZM1061.2 904.401L942.329 972.922C938.51 975.064 935.34 978.194 933.151 981.985C930.962 985.775 929.835 990.085 929.89 994.462C929.89 1040.25 929.89 1086.03 929.89 1131.82L854.373 1088.16C854.373 1042.38 854.373 996.612 854.373 950.862C854.312 946.485 855.436 942.172 857.626 938.381C859.815 934.589 862.989 931.46 866.811 929.323L985.578 860.906L1061.2 904.506V904.401ZM909.02 642.597C869.466 665.489 829.894 688.382 790.305 711.274C786.551 713.51 782.262 714.69 777.892 714.69C773.522 714.69 769.234 713.51 765.479 711.274L646.504 642.545V729.796L760.483 796.027C765.747 799.166 771.763 800.823 777.892 800.823C784.022 800.823 790.037 799.166 795.301 796.027L909.02 730.316V642.753V642.597ZM621.523 1475.04L760.691 1554.28C768.132 1542.39 771.982 1528.61 771.777 1514.58V1400.12C771.938 1385.79 767.864 1371.73 760.067 1359.7C758.122 1356.54 757.055 1352.93 756.975 1349.23C756.895 1345.52 757.805 1341.87 759.611 1338.63C761.417 1335.4 764.054 1332.7 767.249 1330.83C770.445 1328.95 774.083 1327.97 777.788 1327.97C781.493 1327.97 785.131 1328.95 788.327 1330.83C791.522 1332.7 794.159 1335.4 795.965 1338.63C797.771 1341.87 798.681 1345.52 798.601 1349.23C798.521 1352.93 797.454 1356.54 795.51 1359.7C787.689 1371.72 783.614 1385.79 783.799 1400.12V1514.58C783.991 1529.17 788.323 1543.41 796.29 1555.64L934.938 1475.2C938.753 1473.05 941.921 1469.92 944.109 1466.13C946.297 1462.34 947.426 1458.04 947.377 1453.66C947.377 1398.16 947.377 1342.67 947.377 1287.17C947.449 1282.79 946.329 1278.47 944.138 1274.68C941.948 1270.89 938.768 1267.76 934.938 1265.63L790.877 1182.39C787.093 1180.1 782.756 1178.89 778.335 1178.89C773.913 1178.89 769.576 1180.1 765.792 1182.39C718.118 1210.43 669.664 1237.8 621.627 1265.63C617.797 1267.76 614.617 1270.89 612.427 1274.68C610.236 1278.47 609.117 1282.79 609.188 1287.17C609.188 1302.05 608.459 1413.96 609.188 1454.23C609.197 1458.54 610.354 1462.77 612.54 1466.48C614.727 1470.19 617.863 1473.26 621.627 1475.36L621.523 1475.04Z" fill="#E84033"/>
<path d="M103.363 2062.13C113.766 2062.12 124.094 2060.36 133.913 2056.92C135.473 2056.52 136.99 2055.96 138.441 2055.26H138.91V2055.1L142.709 2053.7C143.786 2053.22 144.83 2052.66 145.832 2052.03C147.951 2051.03 150.018 2049.92 152.025 2048.7L154.887 2047.04L160.612 2043.19C164.237 2040.35 167.711 2037.33 171.021 2034.14C175.236 2029.85 178.564 2024.78 180.814 2019.21C183.065 2013.64 184.194 2007.68 184.137 2001.67V1983.57C184.123 1981.39 183.682 1979.24 182.837 1977.24C181.993 1975.24 180.762 1973.42 179.216 1971.9C177.669 1970.37 175.837 1969.16 173.824 1968.34C171.811 1967.52 169.656 1967.11 167.482 1967.12H138.858V2002.19L135.266 2005.52L131.467 2008.38H131.207C129.564 2009.55 127.823 2010.58 126.002 2011.45C124.719 2012.2 123.379 2012.84 121.995 2013.38C120.069 2014.11 117.935 2014.78 116.01 2015.3C111.87 2016.33 107.628 2016.89 103.363 2016.97C99.1824 2016.91 95.0243 2016.35 90.976 2015.3C88.8727 2014.79 86.804 2014.15 84.7826 2013.38C83.4372 2012.9 82.1597 2012.26 80.9834 2011.45C79.0581 2010.55 77.2125 2009.49 75.4666 2008.28L73.3327 2006.82L72.8643 2006.35C71.8755 2005.62 71.1989 2004.95 70.4702 2004.43C65.0776 1999.75 60.7533 1993.97 57.7897 1987.47C54.826 1980.98 53.2924 1973.92 53.2924 1966.79C53.2924 1959.65 54.826 1952.59 57.7897 1946.1C60.7533 1939.6 65.0776 1933.82 70.4702 1929.14V1928.88C71.2245 1928.27 72.0249 1927.71 72.8643 1927.22L73.1245 1926.96L75.2584 1925.5C75.7621 1925.04 76.3215 1924.63 76.9238 1924.31L78.3811 1923.63L79.1097 1922.9L80.7752 1922.17C81.9738 1921.47 83.2486 1920.92 84.5745 1920.51L86.4481 1919.78C86.9894 1919.53 87.5704 1919.37 88.1656 1919.31L88.8422 1918.84C89.5081 1918.81 90.1619 1918.65 90.7678 1918.37C94.8268 1917.42 98.9847 1916.95 103.155 1916.97C107.41 1916.96 111.652 1917.43 115.802 1918.37C116.316 1918.65 116.884 1918.81 117.467 1918.84C117.727 1919.1 117.935 1919.1 118.404 1919.31C118.917 1919.36 119.413 1919.52 119.861 1919.78L121.787 1920.51C123.158 1920.97 124.497 1921.53 125.794 1922.17L127.72 1923.37L129.177 1924.1C129.838 1924.51 130.465 1924.98 131.051 1925.5H131.311C133.914 1927.32 136.384 1929.32 138.701 1931.49L170.657 1899.54C167.401 1896.29 163.923 1893.26 160.248 1890.49C158.322 1889.08 156.397 1887.89 154.523 1886.69C150.681 1884.08 146.604 1881.83 142.345 1879.98C140.939 1879.3 139.482 1878.83 138.077 1878.1L133.549 1876.65C123.73 1873.21 113.402 1871.45 102.998 1871.44C92.6116 1871.45 82.3 1873.21 72.5 1876.65L67.9721 1878.1C66.5148 1878.83 65.1096 1879.3 63.6523 1879.98C59.6443 1881.89 55.7671 1884.06 52.0463 1886.48C50.119 1887.61 48.2754 1888.88 46.5295 1890.28C42.8486 1893.05 39.3701 1896.07 36.1205 1899.33C18.2125 1917.21 8.13289 1941.47 8.09386 1966.77C8.05483 1992.07 18.0596 2016.36 35.9123 2034.29C39.2152 2037.5 42.69 2040.52 46.3213 2043.35C47.9867 2044.54 49.9124 2046 51.8381 2047.2C52.7749 2047.87 53.9719 2048.34 54.9087 2049.07L60.8939 2052.19L63.9646 2053.85C65.4219 2054.32 66.8271 2055.05 68.2843 2055.52C69.7458 2056.2 71.2602 2056.75 72.8123 2057.18C82.6123 2060.63 92.9238 2062.38 103.311 2062.39L103.363 2062.13ZM226.189 2062.13H271.52V2010.41L323.253 2062.13H386.176L327.053 2003.08C338.986 1997.59 349.086 1988.78 356.147 1977.71C363.207 1966.64 366.929 1953.77 366.867 1940.64C366.593 1922.23 359.069 1904.66 345.926 1891.76C332.783 1878.85 315.081 1871.65 296.658 1871.7H226.189V1916.97H296.658C302.948 1916.92 309.014 1919.3 313.591 1923.62C318.168 1927.93 320.902 1933.84 321.224 1940.12C321.395 1943.37 320.897 1946.62 319.763 1949.67C318.628 1952.71 316.879 1955.5 314.626 1957.84C312.372 1960.19 309.661 1962.05 306.66 1963.3C303.659 1964.56 300.432 1965.19 297.179 1965.15H242.896C238.486 1965.19 234.268 1966.95 231.145 1970.07C228.023 1973.18 226.243 1977.39 226.189 1981.8V2062.13ZM416.258 2062.13H463.515L481.835 2022.79H549.806L568.178 2062.13H615.018H615.487L530.861 1881.43C529.527 1878.52 527.379 1876.05 524.673 1874.32C521.968 1872.59 518.821 1871.69 515.612 1871.7C512.319 1871.71 509.103 1872.7 506.383 1874.56C503.663 1876.41 501.565 1879.05 500.363 1882.11L416.362 2062.13H416.258ZM501.872 1980.13L515.924 1949.85L529.768 1980.13H501.872ZM657.383 2062.13H702.61V2008.28H727.175C741.018 2007.96 754.435 2003.43 765.639 1995.3C776.844 1987.17 785.303 1975.81 789.89 1962.75C795.302 1948.06 795.302 1931.92 789.89 1917.23C785.327 1904.35 777.008 1893.12 766.006 1885.01C755.005 1876.9 741.825 1872.26 728.164 1871.7H657.383V1917.23H726.291C732.233 1917.43 737.864 1919.93 742 1924.2C746.135 1928.47 748.452 1934.18 748.462 1940.12C748.323 1946 745.956 1951.61 741.84 1955.81C737.725 1960.01 732.167 1962.49 726.291 1962.75H673.829C671.651 1962.77 669.498 1963.21 667.491 1964.06C665.485 1964.91 663.666 1966.14 662.138 1967.69C660.61 1969.24 659.404 1971.08 658.588 1973.1C657.772 1975.12 657.362 1977.28 657.383 1979.45V2062.39V2062.13ZM830.069 2062.13H875.608V1989.29H949.512V2062.13H995.052V1888.15C995.038 1883.74 993.288 1879.51 990.18 1876.39C987.072 1873.26 982.858 1871.49 978.449 1871.44H949.616V1944.28H875.712V1888.15C875.727 1885.93 875.296 1883.73 874.445 1881.68C873.594 1879.63 872.341 1877.77 870.759 1876.21C869.177 1874.65 867.299 1873.43 865.235 1872.61C863.172 1871.79 860.965 1871.4 858.745 1871.44H829.912V2062.13H830.069ZM1043.04 2062.13H1156.76V2016.86H1088.32V1989.44H1156.76V1944.13H1088.32V1916.76H1156.76V1888.15C1156.74 1883.72 1154.98 1879.48 1151.85 1876.35C1148.72 1873.22 1144.48 1871.46 1140.05 1871.44H1043.04V2062.13ZM1204.69 2062.13H1250.02V1942.93L1352.55 2062.13H1398.3V1888.15C1398.31 1885.95 1397.89 1883.78 1397.06 1881.75C1396.23 1879.72 1395 1877.88 1393.45 1876.32C1391.9 1874.77 1390.06 1873.54 1388.04 1872.7C1386.01 1871.87 1383.84 1871.44 1381.64 1871.44H1353.17V1993.24L1253.25 1877.17C1251.67 1875.38 1249.74 1873.94 1247.56 1872.96C1245.39 1871.97 1243.04 1871.45 1240.65 1871.44H1204.85V2062.13H1204.69ZM1446.28 2062.13H1560V2016.86H1491.56V1989.44H1560V1944.13H1491.56V1916.76H1560V1888.15C1560 1883.73 1558.25 1879.49 1555.13 1876.35C1552 1873.22 1547.77 1871.46 1543.35 1871.44H1446.28V2062.13Z" fill="#E84033"/>
<path d="M91.288 2348.8C95.2417 2348.81 99.0994 2347.58 102.326 2345.3C105.553 2343.02 107.989 2339.78 109.296 2336.05H109.556L174.04 2158.12H139.95C136.702 2158.1 133.528 2159.08 130.869 2160.95C128.211 2162.82 126.2 2165.46 125.117 2168.52L91.288 2261.71L57.2505 2168.37C56.1828 2165.35 54.2118 2162.73 51.6049 2160.87C48.998 2159.01 45.8814 2157.99 42.6779 2157.96H8.32812L73.1763 2336.05C74.5198 2339.77 76.9822 2342.99 80.2251 2345.25C83.4681 2347.51 87.3327 2348.72 91.288 2348.7V2348.8ZM275.111 2348.8H322.316L340.688 2309.47H408.607L426.771 2348.8H473.611L474.08 2348.54L389.767 2168.11C388.439 2165.15 386.272 2162.64 383.534 2160.9C380.797 2159.16 377.608 2158.26 374.363 2158.31C371.118 2158.35 367.959 2159.35 365.276 2161.18C362.594 2163.01 360.505 2165.58 359.268 2168.58V2168.84L275.111 2348.8ZM360.674 2266.8L374.726 2236.52L388.518 2266.8H360.674ZM611.01 2348.8H722.855V2303.28H656.55V2174.77C656.543 2172.59 656.106 2170.44 655.264 2168.44C654.422 2166.43 653.192 2164.61 651.644 2163.08C650.096 2161.56 648.261 2160.35 646.245 2159.53C644.229 2158.72 642.071 2158.31 639.895 2158.33H611.01V2349.01V2348.8ZM865.667 2348.8H977.512V2303.28H911.207V2174.77C911.193 2172.59 910.75 2170.44 909.902 2168.43C909.054 2166.43 907.819 2164.61 906.267 2163.08C904.715 2161.55 902.877 2160.35 900.858 2159.53C898.838 2158.72 896.678 2158.31 894.5 2158.33H865.667V2349.01V2348.8ZM1120.27 2348.8H1234.04V2303.48H1165.81V2276.07H1234.25V2230.8H1165.81V2203.38H1234.25V2174.77C1234.22 2170.35 1232.45 2166.12 1229.32 2163.01C1226.2 2159.89 1221.96 2158.13 1217.54 2158.12H1120.27V2348.8ZM1442.64 2348.8H1487.92V2260.61L1559.69 2158.33H1512.85C1510.18 2158.35 1507.55 2159.02 1505.18 2160.27C1502.82 2161.52 1500.79 2163.31 1499.26 2165.51L1465.17 2213.89L1431.24 2165.25C1429.73 2163.04 1427.71 2161.23 1425.34 2159.99C1422.97 2158.75 1420.33 2158.1 1417.66 2158.12H1370.82L1442.59 2260.35V2348.8H1442.64Z" fill="#E84033"/>
<path d="M56.835 2533.76C74.6864 2533.76 88.7907 2525.85 94.932 2512.27L75.8314 2501.87C74.0917 2505.44 71.3631 2508.45 67.9688 2510.52C64.5744 2512.6 60.6565 2513.66 56.6788 2513.57C50.6244 2513.29 44.9122 2510.68 40.7282 2506.3C36.5441 2501.92 34.2098 2496.09 34.2098 2490.03C34.2098 2483.97 36.5441 2478.15 40.7282 2473.76C44.9122 2469.38 50.6244 2466.77 56.6788 2466.49C60.6453 2466.46 64.5402 2467.54 67.9243 2469.61C71.3084 2471.68 74.0471 2474.65 75.8314 2478.19L94.932 2467.79C88.7907 2453.9 74.6864 2446.15 56.835 2446.15C29.147 2446.15 9.42188 2464.3 9.42188 2489.9C9.42188 2515.5 29.147 2533.76 56.835 2533.76ZM207.766 2533.76C234.777 2533.76 254.606 2515.6 254.606 2489.95C254.606 2464.3 234.985 2446.2 207.766 2446.2C180.546 2446.2 160.925 2464.35 160.925 2489.95C160.925 2515.55 180.702 2533.76 207.766 2533.76ZM207.766 2513.52C195.431 2513.52 185.907 2504.68 185.907 2489.95C185.907 2475.23 195.431 2466.44 207.766 2466.44C220.1 2466.44 229.417 2475.28 229.417 2489.95C229.417 2504.62 220.1 2513.52 207.766 2513.52ZM353.492 2458.68V2447.45H329.916V2532.51H354.585V2492.14C354.585 2475.85 363.589 2468.41 377.225 2468.41C379.098 2468.41 380.712 2468.41 382.741 2468.73V2445.99C369.626 2445.99 359.477 2450.26 353.492 2458.48V2458.68ZM506.869 2446.2C501.874 2445.9 496.875 2446.73 492.25 2448.64C487.625 2450.55 483.494 2453.49 480.17 2457.23V2447.45H456.593V2563.16H481.263V2523.35C484.529 2526.83 488.508 2529.56 492.927 2531.36C497.347 2533.15 502.103 2533.97 506.869 2533.76C530.758 2533.76 549.234 2516.7 549.234 2489.95C549.234 2463.21 530.758 2446.2 506.869 2446.2ZM502.601 2513.52C490.267 2513.52 480.951 2504.68 480.951 2489.95C480.951 2475.23 490.267 2466.12 502.601 2466.12C514.936 2466.12 524.252 2474.97 524.252 2489.64C524.252 2504.31 514.936 2513.21 502.601 2513.21V2513.52ZM665.346 2533.76C692.358 2533.76 712.187 2515.6 712.187 2489.95C712.187 2464.3 692.566 2446.2 665.346 2446.2C638.127 2446.2 618.506 2464.35 618.506 2489.95C618.506 2515.55 638.283 2533.76 665.346 2533.76ZM665.346 2513.52C652.96 2513.52 643.487 2504.68 643.487 2489.95C643.487 2475.23 652.96 2466.44 665.346 2466.44C677.733 2466.44 686.997 2475.28 686.997 2489.95C686.997 2504.62 677.629 2513.52 665.346 2513.52ZM811.073 2458.68V2447.45H787.496V2532.51H812.166V2492.14C812.166 2475.85 821.169 2468.41 834.805 2468.41C836.679 2468.41 838.24 2468.41 840.322 2468.73V2445.99C827.207 2445.99 817.058 2450.26 811.073 2458.48V2458.68ZM948.003 2446.2C935.101 2446.01 922.429 2449.63 911.572 2456.6L920.419 2473.88C927.519 2468.66 936.121 2465.88 944.933 2465.97C958.204 2465.97 964.554 2472.11 964.554 2482.72H944.933C918.91 2482.72 908.501 2493.13 908.501 2508.16C908.501 2523.2 920.367 2534.18 940.301 2534.18C952.791 2534.18 961.639 2530.07 966.323 2522.31V2532.72H988.859V2483.81C988.859 2458.06 973.818 2446.04 947.899 2446.04L948.003 2446.2ZM946.13 2517.16C937.386 2517.16 932.182 2513.05 932.182 2506.76C932.182 2500.46 935.825 2496.77 947.379 2496.77H964.293V2505.46C962.893 2509.07 960.375 2512.13 957.108 2514.21C953.84 2516.29 949.994 2517.27 946.13 2517.01V2517.16ZM1118.61 2511.02C1115.71 2513.1 1112.23 2514.2 1108.67 2514.15C1107.21 2514.23 1105.75 2513.99 1104.4 2513.44C1103.05 2512.9 1101.83 2512.06 1100.84 2510.99C1099.85 2509.92 1099.1 2508.65 1098.65 2507.26C1098.21 2505.88 1098.07 2504.41 1098.26 2502.96V2468.31H1119.44V2449.37H1098.15V2428.56H1073.48V2449.37H1060.37V2468.31H1073.48V2503.27C1073.48 2523.51 1085.19 2533.76 1105.28 2533.76C1112.35 2534.08 1119.35 2532.27 1125.37 2528.56L1118.71 2511.18L1118.61 2511.02ZM1210.67 2435.58C1212.63 2435.74 1214.6 2435.49 1216.46 2434.85C1218.31 2434.21 1220.01 2433.18 1221.45 2431.85C1222.89 2430.51 1224.04 2428.89 1224.82 2427.09C1225.59 2425.29 1225.99 2423.34 1225.98 2421.38C1225.92 2419.48 1225.46 2417.61 1224.65 2415.89C1223.83 2414.18 1222.67 2412.65 1221.23 2411.4C1219.79 2410.16 1218.11 2409.22 1216.3 2408.65C1214.48 2408.09 1212.57 2407.9 1210.67 2408.11C1208.73 2407.87 1206.75 2408.05 1204.88 2408.63C1203.01 2409.21 1201.28 2410.18 1199.81 2411.48C1198.34 2412.78 1197.16 2414.38 1196.36 2416.16C1195.55 2417.95 1195.14 2419.89 1195.14 2421.85C1195.14 2423.81 1195.55 2425.75 1196.36 2427.53C1197.16 2429.32 1198.34 2430.92 1199.81 2432.22C1201.28 2433.51 1203.01 2434.49 1204.88 2435.07C1206.75 2435.65 1208.73 2435.82 1210.67 2435.58ZM1198.34 2532.51H1223.06V2447.29H1198.39V2532.36L1198.34 2532.51ZM1345.52 2533.76C1372.59 2533.76 1392.36 2515.6 1392.36 2489.95C1392.36 2464.3 1372.74 2446.2 1345.52 2446.2C1318.3 2446.2 1298.68 2464.35 1298.68 2489.95C1298.68 2515.55 1318.46 2533.76 1345.52 2533.76ZM1345.52 2513.52C1333.19 2513.52 1323.72 2504.68 1323.72 2489.95C1323.72 2475.23 1333.19 2466.44 1345.52 2466.44C1357.86 2466.44 1367.23 2475.28 1367.23 2489.95C1367.23 2504.62 1357.86 2513.52 1345.52 2513.52ZM1519.72 2446.04C1514.5 2445.83 1509.29 2446.72 1504.44 2448.66C1499.59 2450.6 1495.2 2453.53 1491.56 2457.28V2447.29H1467.67V2532.36H1492.34V2490.32C1492.34 2474.71 1500.88 2467.37 1512.74 2467.37C1523.67 2467.37 1529.97 2473.72 1529.97 2487.46V2532.36H1554.64V2483.66C1554.64 2457.64 1539.44 2446.04 1519.41 2446.04H1519.72Z" fill="#E84033"/>
</g>
<defs>
<clipPath id="clip0_186_2">
<rect width="1560" height="2563" fill="white"/>
</clipPath>
</defs>
</svg>
